# xmcd
#
# Track frame offsets:
#	150
#	18531
#	30263
#	46958
#	60745
#	75006
#	86395
#	99291
#	106764
#	119634
#
# Disc length: 1781 seconds
#
# Revision: 2
# Processed by: cddbd v1.5.2PL0 Copyright (c) Steve Scherf et al.
# Submitted via: audiograbber 1.83.01
#
DISCID=6506f30a
DTITLE=Various Artist - 70s #1 Country Smashes
DYEAR=2006
DGENRE=Country
TTITLE0=Johnny Cash - One Piece At a Time
TTITLE1=Merle Haggard - Carolyn
TTITLE2=Ray Price - You're The Best Thing That Ever Happened To Me
TTITLE3=Tanya Tucker - Blood Red and Goin' Down
TTITLE4=Conway Twitty - You've Never Been This Far Before
TTITLE5=Charlie Rich - Rollin' With the Flow
TTITLE6=Merle Haggard - The Fightin' Side of Me
TTITLE7=Mickey Gilley - Window Up Above (Live)
TTITLE8=Faron Young - It's Four In the Morning
TTITLE9=Conway Twitty - Fifteen Years Ago
EXTD=
EXTT0=
EXTT1=
EXTT2=
EXTT3=
EXTT4=
EXTT5=
EXTT6=
EXTT7=
EXTT8=
EXTT9=
PLAYORDER=
